<svg xmlns="http://www.w3.org/2000/svg" width="1428" height="134" fill="none" viewBox="0 0 1428 134">
  <path fill="#9B9A95" d="M582.686 53.582v-7.418c0-.742-.369-1.608-.861-2.102l-1.97-1.978c-.492-.495-1.354-.866-2.093-.866h-18.096c-.739 0-1.6.371-2.093.866l-3.57 3.585H539.97v-3.214c0-1.731 1.6-4.699 3.447-6.553l5.416-5.44c1.847-1.855 5.663-3.462 8.371-3.462h23.02c2.709 0 6.525 1.607 8.371 3.462l5.417 5.44c1.846 1.854 3.447 5.687 3.447 8.407v53.906h-14.773V95.37l-2.462 1.36c-1.354.865-4.678 1.484-7.386 1.484h-17.604c-2.708 0-6.524-1.608-8.371-3.462l-5.416-5.44C539.6 87.458 538 83.625 538 80.906v-10.88c0-2.72 1.6-6.553 3.447-8.408l4.555-4.574c1.846-1.855 5.662-3.462 8.371-3.462h28.313Zm0 13.6h-24.62c-.739 0-1.601.37-2.093.865l-2.339 2.35c-.492.494-.862 1.36-.862 2.101v6.553c0 .742.37 1.607.862 2.102l1.97 1.978c.492.495 1.354.865 2.092.865h14.65c.861 0 1.846-.37 2.585-.618l7.755-3.09V67.181Zm173-12.6v-7.418c0-.742-.369-1.608-.861-2.102l-1.97-1.978c-.492-.495-1.354-.866-2.093-.866h-18.096c-.739 0-1.6.371-2.093.866l-3.57 3.585H712.97v-3.214c0-1.731 1.6-4.699 3.447-6.553l5.416-5.44c1.847-1.855 5.663-3.462 8.371-3.462h23.02c2.709 0 6.525 1.607 8.371 3.462l5.417 5.44c1.846 1.854 3.447 5.687 3.447 8.407v53.906h-14.773V96.37l-2.462 1.36c-1.354.865-4.678 1.484-7.386 1.484h-17.604c-2.708 0-6.524-1.608-8.371-3.462l-5.416-5.44C712.6 88.458 711 84.625 711 81.906v-10.88c0-2.72 1.6-6.553 3.447-8.408l4.555-4.574c1.846-1.855 5.662-3.462 8.371-3.462h28.313Zm0 13.6h-24.62c-.739 0-1.601.37-2.093.865l-2.339 2.35c-.492.494-.862 1.36-.862 2.101v6.553c0 .742.37 1.607.862 2.102l1.97 1.978c.492.495 1.354.865 2.092.865h14.65c.861 0 1.846-.37 2.585-.618l7.755-3.09V68.181ZM1308.08 33h23.19c2.69 0 6.47 1.607 8.3 3.462l5.37 5.44c1.83 1.854 3.42 5.687 3.42 8.407v8.407h-14.65v-5.934c0-.742-.36-1.607-.85-2.102l-1.95-1.978c-.49-.495-1.35-.866-2.08-.866h-18.3c-.74 0-1.59.371-2.08.866l-1.95 1.978c-.49.495-.86 1.36-.86 2.102v31.65c0 .742.37 1.608.86 2.102l1.95 1.979c.49.494 1.34.865 2.08.865h18.3c.73 0 1.59-.37 2.08-.865l1.95-1.979c.49-.494.85-1.36.85-2.101v-5.935h14.65v8.407c0 2.72-1.59 6.553-3.42 8.408l-5.37 5.44c-1.83 1.854-5.61 3.462-8.3 3.462h-23.19c-2.68 0-6.46-1.608-8.29-3.462l-5.37-5.44c-1.83-1.855-3.42-5.688-3.42-8.407V50.309c0-2.72 1.59-6.553 3.42-8.407l5.37-5.44c1.83-1.855 5.61-3.462 8.29-3.462Zm-87.76 0h23.51c2.72 0 6.56 1.607 8.41 3.462l5.45 5.44c1.85 1.854 3.46 5.687 3.46 8.407v25.222h-43.3v9.52c0 .742.37 1.607.86 2.102l1.98 1.978c.5.495 1.36.865 2.11.865h19.79c.75 0 1.61-.37 2.11-.865l3.46-3.462h14.23v3.091c0 1.73-1.61 4.698-3.46 6.553l-5.45 5.44c-1.85 1.854-5.69 3.462-8.41 3.462h-24.75c-2.72 0-6.56-1.608-8.41-3.462l-5.45-5.44c-1.85-1.855-3.46-5.688-3.46-8.407V50.309c0-2.72 1.61-6.553 3.46-8.407l5.45-5.44c1.85-1.855 5.69-3.462 8.41-3.462Zm-1.61 17.062c-.49.494-.86 1.36-.86 2.102v9.52h28.46v-9.52c0-.742-.38-1.608-.87-2.102l-1.98-1.978c-.5-.495-1.36-.866-2.1-.866h-18.56c-.75 0-1.61.371-2.11.866l-1.98 1.978ZM476.516 28.684h15.936c2.696 0 6.496 1.607 8.335 3.461l5.394 5.44c1.838 1.855 3.432 5.688 3.432 8.408v52.916h-14.71V48.465c0-.741-.368-1.607-.858-2.101l-1.961-1.978c-.49-.495-1.349-.866-2.084-.866h-12.994c-.858 0-1.838.37-2.451.618l-7.845 3.338V98.91H452V0h14.71v31.527l2.451-1.36c1.349-.865 4.658-1.483 7.355-1.483Zm679.944 5.771h14.59v81c0 2.7-1.58 6.504-3.4 8.345l-5.35 5.4c-1.83 1.841-5.6 3.436-8.27 3.436H1137v-14.727h14.59c.73 0 1.59-.368 2.07-.859l1.95-1.964c.48-.491.85-1.35.85-2.086V34.454Zm-1.22-12.273V5h17.03v17.182h-17.03ZM137.623 61.364l29.264 36.818h-18.892l-23.461-29.455h-2.717v29.455H107V0h14.817v54h2.593l21.609-24.546h19.633l-28.029 31.91ZM650.59 29h15.984c2.705 0 6.516 1.596 8.36 3.436l5.41 5.4c1.845 1.841 3.443 5.646 3.443 8.346v52.527h-14.754V48.636c0-.736-.369-1.595-.861-2.086l-1.967-1.964c-.492-.49-1.353-.859-2.09-.859h-13.033c-.861 0-1.844.369-2.459.614l-7.869 3.313V98.71H626V29h14.754v2.823l2.459-1.35c1.353-.86 4.672-1.473 7.377-1.473Zm-243.319-1c2.685 0 6.468 1.596 8.298 3.436l5.37 5.4c1.83 1.841 3.417 5.646 3.417 8.346v36.327c0 2.7-1.587 6.505-3.417 8.346l-5.37 5.4c-1.83 1.84-5.613 3.436-8.298 3.436h-23.186c-2.685 0-6.468-1.596-8.299-3.437l-5.369-5.4C368.586 88.014 367 84.21 367 81.51V45.182c0-2.7 1.586-6.505 3.417-8.346l5.369-5.4c1.831-1.84 5.614-3.436 8.299-3.436h23.186Zm1.587 53.14c.488-.49.854-1.35.854-2.085V47.636c0-.736-.366-1.595-.854-2.086l-1.953-1.964c-.488-.49-1.342-.859-2.074-.859h-18.306c-.732 0-1.586.369-2.074.86l-1.953 1.963c-.488.49-.854 1.35-.854 2.086v31.419c0 .736.366 1.595.854 2.086l1.953 1.963c.488.492 1.342.86 2.074.86h18.306c.732 0 1.586-.368 2.074-.86l1.953-1.963ZM1104.27 34c2.69 0 6.47 1.596 8.3 3.436l5.37 5.4c1.83 1.841 3.42 5.646 3.42 8.346v36.327c0 2.7-1.59 6.505-3.42 8.346l-5.37 5.4c-1.83 1.84-5.61 3.436-8.3 3.436h-23.19c-2.68 0-6.46-1.596-8.29-3.436l-5.37-5.4c-1.83-1.841-3.42-5.646-3.42-8.346V51.182c0-2.7 1.59-6.505 3.42-8.346l5.37-5.4c1.83-1.84 5.61-3.436 8.29-3.436h23.19Zm1.59 53.14c.49-.49.85-1.35.85-2.085V53.636c0-.736-.36-1.595-.85-2.086l-1.95-1.964c-.49-.49-1.35-.859-2.08-.859h-18.3c-.74 0-1.59.369-2.08.86l-1.95 1.963c-.49.49-.86 1.35-.86 2.086v31.419c0 .736.37 1.595.86 2.086l1.95 1.963c.49.492 1.34.86 2.08.86h18.3c.73 0 1.59-.368 2.08-.86l1.95-1.963ZM931.364 34c2.691 0 6.482 1.596 8.317 3.436l5.382 5.4c1.835 1.841 3.425 5.646 3.425 8.346v36.327c0 2.7-1.59 6.505-3.425 8.346l-5.382 5.4c-1.835 1.84-5.626 3.436-8.317 3.436h-15.901c-2.691 0-5.994-.614-7.339-1.473l-2.446-1.35v31.296H891V34h14.678v2.823s1.712-.982 2.446-1.35c1.345-.86 4.648-1.473 7.339-1.473h15.901Zm-17.858 55.35c.611.246 1.59.614 2.446.614h12.965c.734 0 1.59-.368 2.08-.86l1.957-1.963c.489-.491.856-1.35.856-2.087V53.637c0-.736-.367-1.595-.856-2.086l-1.957-1.964c-.49-.49-1.346-.859-2.08-.859h-12.965c-.856 0-1.835.369-2.446.614l-7.828 3.313v33.382l7.828 3.314ZM305.828 29h16.138c2.731 0 6.579 1.596 8.441 3.436l5.462 5.4c1.862 1.841 3.476 5.646 3.476 8.346v5.89h-14.897v-3.436c0-.736-.372-1.595-.869-2.086l-1.986-1.964c-.496-.49-1.365-.859-2.11-.859h-13.159c-.869 0-1.862.369-2.483.614l-7.944 3.313V98.71H281V29h14.897v2.823l2.482-1.35c1.366-.86 4.718-1.473 7.449-1.473Zm697.002 5h16.14c2.73 0 6.57 1.596 8.44 3.436l5.46 5.4c1.86 1.841 3.47 5.646 3.47 8.346v5.89h-14.89v-3.436c0-.736-.37-1.595-.87-2.086l-1.99-1.964c-.49-.49-1.36-.859-2.11-.859h-13.16c-.86 0-1.86.369-2.48.614l-7.943 3.313v51.055H978V34h14.897v2.823l2.482-1.35c1.366-.86 4.721-1.473 7.451-1.473ZM79.29 1 17.44 99.182H0L61.848 1h17.441Zm1324.2 34.09h24.04v14.728h-24.04v34.364c0 .736.37 1.595.87 2.086l1.97 1.964c.49.49 1.35.859 2.09.859h19.11v14.727h-21.57c-2.71 0-6.53-1.595-8.38-3.436l-5.42-5.4c-1.85-1.841-3.45-5.646-3.45-8.346V49.818H1377V35.091h11.71V13h14.78v22.09ZM228.197 98.71h-15.984c-2.705 0-6.516-1.596-8.361-3.437l-5.409-5.4c-1.845-1.841-3.443-5.646-3.443-8.346V29h14.754v50.073c0 .736.369 1.595.861 2.086l1.967 1.964c.492.49 1.352.859 2.09.859h13.279c.86 0 1.598-.246 2.336-.614l7.746-3.313V29h14.754v69.954h-14.754v-3.068l-2.459 1.35c-1.353.86-4.672 1.473-7.377 1.473ZM799 99V84h64v15h-64Z"/>
</svg>
