<svg xmlns="http://www.w3.org/2000/svg" width="87" height="86" fill="none" viewBox="0 0 87 86">
  <g filter="url(#a)">
    <path fill="#070707" d="m28.6 41.756-9.6-3.91-2.158.317A17.85 17.85 0 0 0 3 48.867a21.69 21.69 0 0 0 15.31 8.817l.69.072a22.193 22.193 0 0 0 11.607-1.761l.838-.373a20.706 20.706 0 0 1 8.632-10.51l.257-.157-11.734-3.2Zm29.157 0 9.6-3.91 2.158.317a17.85 17.85 0 0 1 13.842 10.705 21.69 21.69 0 0 1-15.31 8.817l-.69.072a22.193 22.193 0 0 1-11.606-1.761l-.839-.373a20.706 20.706 0 0 0-8.632-10.51l-.257-.157 11.734-3.2Z"/>
    <path fill="#070707" stroke="#070707" d="m51.855 30.709.807-2.152a15.513 15.513 0 0 0-2.214-14.885l-3.003-3.916a25.683 25.683 0 0 1-4.053-6.286L43.178 3l-.213.47a25.686 25.686 0 0 1-4.053 6.286l-2.825 3.852A16.762 16.762 0 0 0 34.61 31.02l.563 1.127a19.453 19.453 0 0 0 2.13 3.353l4.097 5.189 1.777 2.489 1.778-2.49 3.47-4.12a20 20 0 0 0 3.429-5.86Z"/>
    <path fill="#070707" d="m51.33 38.88-1.751 1.81 9.955-3.911 5.504-1.676a8.858 8.858 0 0 0 4.397-3.015 26.575 26.575 0 0 0 5.493-13.522l.607-5.61-2.284-.139a27.688 27.688 0 0 0-17.272 4.761A20.716 20.716 0 0 1 51.33 38.88Zm-16.658 0 1.751 1.81-9.955-3.911-5.504-1.676a8.858 8.858 0 0 1-4.397-3.015 26.574 26.574 0 0 1-5.493-13.522l-.607-5.61 2.284-.139a27.688 27.688 0 0 1 17.272 4.761 20.716 20.716 0 0 0 4.649 21.302ZM38.2 52.423l4.979-6.044 4.977 6.044a14.726 14.726 0 0 1 2.725 17.739l-2.369 4.306-5.333 5.69-5.334-5.69-1.432-2.062a15.642 15.642 0 0 1 1.788-19.983Z"/>
  </g>
  <defs>
    <filter id="a" width="86.357" height="84.365" x="0" y=".792" color-interpolation-filters="sRGB" filterUnits="userSpaceOnUse">
      <feFlood flood-opacity="0" result="BackgroundImageFix"/>
      <feColorMatrix in="SourceAlpha" result="hardAlpha" values="0 0 0 0 0 0 0 0 0 0 0 0 0 0 0 0 0 0 127 0"/>
      <feOffset dy="2"/>
      <feGaussianBlur stdDeviation="1.5"/>
      <feComposite in2="hardAlpha" operator="out"/>
      <feColorMatrix values="0 0 0 0 0 0 0 0 0 0 0 0 0 0 0 0 0 0 0.5 0"/>
      <feBlend in2="BackgroundImageFix" result="effect1_dropShadow_465_31"/>
      <feBlend in="SourceGraphic" in2="effect1_dropShadow_465_31" result="shape"/>
    </filter>
  </defs>
</svg>
